<svg version="1.1" xmlns="http://www.w3.org/2000/svg" viewBox="-218.7 -2964.3999999999996 3614.9 3281.1"><desc>Created with Snap</desc><defs></defs><g><g transform="matrix(51.0469,0,0,51.0469,772,-2657.2)"><g display="none"><rect x="-27.333" y="-102.661" display="inline" fill="#daa03d" width="473.333" height="236" style=""></rect></g><g display="none"><g display="inline"><rect x="22.318" y="13.214" transform="matrix(0.7071 -0.7071 0.7071 0.7071 -9.1591 22.6972)" fill="#daa03d" width="1" height="18.382" style=""></rect></g><g display="inline"><rect x="0.005" y="15.5" transform="matrix(0.7071 -0.7071 0.7071 0.7071 -6.6272 16.0001)" fill="#daa03d" width="31.99" height="1" style=""></rect></g><g display="inline"><rect x="25.806" fill="#daa03d" width="6.194" height="6.194" style=""></rect></g><g display="inline"><rect x="25.806" y="25.806" fill="#daa03d" width="6.194" height="6.194" style=""></rect></g><g display="inline"><rect y="25.806" fill="#daa03d" width="6.194" height="6.194" style=""></rect></g></g><g><g><rect x="21.014" y="13.754" transform="matrix(0.7071 -0.7071 0.7071 0.7071 -8.6193 21.3917)" width="1" height="14.694" fill="#daa03d" style=""></rect></g><g><rect x="0.922" y="15.669" transform="matrix(0.7071 -0.7071 0.7071 0.7071 -6.7967 15.9298)" width="29.817" height="1" fill="#daa03d" style=""></rect></g><g><path d="M31,1v4.194h-4.194V1H31 M32,0h-6.194v6.194H32V0L32,0z" fill="#daa03d" style=""></path></g><g><path d="M31,26.806V31h-4.194v-4.194H31 M32,25.806h-6.194V32H32V25.806L32,25.806z" fill="#daa03d" style=""></path></g><g><path d="M5.194,26.806V31H1v-4.194H5.194 M6.194,25.806H0V32h6.194V25.806L6.194,25.806z" fill="#daa03d" style=""></path></g></g><g display="none"><line display="inline" fill="#daa03d" stroke="#daa03d" stroke-miterlimit="10" x1="26.709" y1="26.296" x2="16.319" y2="15.906" style=""></line><line display="inline" fill="#daa03d" stroke="#daa03d" stroke-miterlimit="10" x1="5.289" y1="26.711" x2="26.372" y2="5.628" style=""></line><g display="inline"><rect x="26.307" y="0.5" fill="#daa03d" width="5.193" height="5.193" style=""></rect><g><path d="M31,1v4.194h-4.194V1H31 M32,0h-6.194v6.194H32V0L32,0z" fill="#daa03d" style=""></path></g></g><g display="inline"><rect x="26.307" y="26.306" fill="#daa03d" width="5.193" height="5.194" style=""></rect><g><path d="M31,26.806V31h-4.194v-4.194H31 M32,25.806h-6.194V32H32V25.806L32,25.806z" fill="#daa03d" style=""></path></g></g><g display="inline"><rect x="0.5" y="26.306" fill="#daa03d" width="5.193" height="5.194" style=""></rect><g><path d="M5.194,26.806V31H1v-4.194H5.194 M6.194,25.806H0V32h6.194V25.806L6.194,25.806z" fill="#daa03d" style=""></path></g></g></g><g display="none"><line display="inline" fill="#daa03d" stroke="#daa03d" stroke-miterlimit="10" x1="26.709" y1="26.296" x2="16.319" y2="15.906" style=""></line><line display="inline" fill="#daa03d" stroke="#daa03d" stroke-miterlimit="10" x1="5.289" y1="26.711" x2="26.372" y2="5.628" style=""></line><rect x="25.806" display="inline" fill="#daa03d" width="6.194" height="6.194" style=""></rect><rect x="25.806" y="25.806" display="inline" fill="#daa03d" width="6.194" height="6.194" style=""></rect><rect y="25.806" display="inline" fill="#daa03d" width="6.194" height="6.194" style=""></rect></g><desc>Created with Snap</desc><defs></defs></g><g><g transform="matrix(0.5,0,0,-0.5,0,0)"><path d="M1008 908L967 909Q945 911 911 911L687 911L687 0L177 0L177 1415L971 1415L1070 1418L1088 1418Q1163 1418 1163 1374Q1163 1357 1149 1342Q1136 1328 1120 1328Q1094 1328 1070 1333Q1024 1343 950 1343L687 1343L687 983L888 983Q888 983 1012 988Q1066 988 1066 948Q1066 908 1008 908ZM2192 91Q2245 91 2245 46Q2245 28 2223 14Q2202 0 2147 0L1335 0L1335 1415L1845 1415L1845 66L2032 66Q2095 66 2140 78Q2186 91 2192 91ZM3267 908L3226 909Q3204 911 3170 911L2946 911L2946 0L2436 0L2436 1415L3230 1415L3329 1418L3347 1418Q3422 1418 3422 1374Q3422 1357 3408 1342Q3395 1328 3379 1328Q3353 1328 3329 1333Q3283 1343 3209 1343L2946 1343L2946 983L3147 983Q3147 983 3271 988Q3325 988 3325 948Q3325 908 3267 908ZM4471 86Q4522 86 4522 46Q4522 28 4500 14Q4478 0 4424 0L3577 0L3577 1415Q3971 1415 4365 1415L4447 1418Q4522 1418 4522 1374Q4522 1357 4509 1342Q4497 1328 4481 1328Q4455 1328 4426 1334Q4383 1343 4308 1343L4087 1343L4087 1038L4269 1038Q4269 1038 4392 1043Q4414 1043 4429 1032Q4445 1022 4445 1003Q4445 961 4389 961L4346 962Q4313 965 4291 965L4087 965L4087 73L4308 73Q4382 73 4413 79Q4450 86 4471 86ZM4938 180Q4839 277 4780 414Q4722 552 4722 714Q4722 877 4777 1006Q4833 1136 4931 1231Q5141 1433 5458 1433Q5773 1433 5974 1234Q6178 1032 6178 710Q6178 389 5969 182Q5838 54 5647 5Q5552 -19 5426 -19Q5301 -19 5169 32Q5037 84 4938 180ZM5457 1360Q5402 1360 5354 1352L5354 62Q5400 54 5457 54Q5724 54 5907 232Q6098 417 6098 710Q6098 989 5919 1174Q5738 1360 5457 1360Z" fill="#616247" style=""></path></g></g></g></svg>